<svg xmlns="http://www.w3.org/2000/svg" viewBox="73.5 73.5 123 123" aria-hidden="true">
  <path fill="#e01e5a" d="M99.4 151.2c0 7.1-5.8 12.9-12.9 12.9-7.1 0-12.9-5.8-12.9-12.9 0-7.1 5.8-12.9 12.9-12.9h12.9v12.9z"/>
  <path fill="#e01e5a" d="M105.9 151.2c0-7.1 5.8-12.9 12.9-12.9 7.1 0 12.9 5.8 12.9 12.9v32.3c0 7.1-5.8 12.9-12.9 12.9-7.1 0-12.9-5.8-12.9-12.9v-32.3z"/>
  <path fill="#36c5f0" d="M118.8 99.4c-7.1 0-12.9-5.8-12.9-12.9 0-7.1 5.8-12.9 12.9-12.9 7.1 0 12.9 5.8 12.9 12.9v12.9h-12.9z"/>
  <path fill="#36c5f0" d="M118.8 105.9c7.1 0 12.9 5.8 12.9 12.9 0 7.1-5.8 12.9-12.9 12.9H86.5c-7.1 0-12.9-5.8-12.9-12.9 0-7.1 5.8-12.9 12.9-12.9h32.3z"/>
  <path fill="#2eb67d" d="M170.6 118.8c0-7.1 5.8-12.9 12.9-12.9 7.1 0 12.9 5.8 12.9 12.9 0 7.1-5.8 12.9-12.9 12.9h-12.9v-12.9z"/>
  <path fill="#2eb67d" d="M164.1 118.8c0 7.1-5.8 12.9-12.9 12.9-7.1 0-12.9-5.8-12.9-12.9V86.5c0-7.1 5.8-12.9 12.9-12.9 7.1 0 12.9 5.8 12.9 12.9v32.3z"/>
  <path fill="#ecb22e" d="M151.2 170.6c7.1 0 12.9 5.8 12.9 12.9 0 7.1-5.8 12.9-12.9 12.9-7.1 0-12.9-5.8-12.9-12.9v-12.9h12.9z"/>
  <path fill="#ecb22e" d="M151.2 164.1c-7.1 0-12.9-5.8-12.9-12.9 0-7.1 5.8-12.9 12.9-12.9h32.3c7.1 0 12.9 5.8 12.9 12.9 0 7.1-5.8 12.9-12.9 12.9h-32.3z"/>
</svg>
